<mxfile host="app.diagrams.net" modified="2023-05-07T13:14:39.577Z" agent="Mozilla/5.0 (Windows NT 10.0; Win64; x64) AppleWebKit/537.36 (KHTML, like Gecko) Chrome/113.0.0.0 Safari/537.36" version="21.2.9" etag="s57wwjcw2gc1FC9D09vg" type="github">
  <diagram name="Page-1" id="2M8t1s02PgH5SLMpezyT">
    <mxGraphModel>
      <root>
        <mxCell id="0" />
        <mxCell id="1" parent="0" />
      </root>
    </mxGraphModel>
  </diagram>
</mxfile>
